<svg width="30" height="30" viewBox="0 0 30 30" fill="none" xmlns="http://www.w3.org/2000/svg">
<g clip-path="url(#clip0_790_924)">
<path d="M15 15C17.2729 15 19.4528 14.2098 21.06 12.8033C22.6672 11.3968 23.5702 9.48912 23.5702 7.5C23.5702 5.51088 22.6672 3.60322 21.06 2.1967C19.4528 0.790176 17.2729 0 15 0C12.727 0 10.5472 0.790176 8.93997 2.1967C7.33275 3.60322 6.42983 5.51088 6.42983 7.5C6.42983 9.48912 7.33275 11.3968 8.93997 12.8033C10.5472 14.2098 12.727 15 15 15ZM11.9402 17.8125C5.34516 17.8125 0.00219727 22.4883 0.00219727 28.2598C0.00219727 29.2207 0.892692 30 1.99075 30H28.0093C29.1073 30 29.9978 29.2207 29.9978 28.2598C29.9978 22.4883 24.6548 17.8125 18.0598 17.8125H11.9402Z" fill="black"/>
</g>
<defs>
<clipPath id="clip0_790_924">
<rect width="30" height="30" fill="white"/>
</clipPath>
</defs>
</svg>
