<?xml version="1.0" standalone="no"?>
<!DOCTYPE svg PUBLIC "-//W3C//DTD SVG 20010904//EN"
 "http://www.w3.org/TR/2001/REC-SVG-20010904/DTD/svg10.dtd">
<svg version="1.0" xmlns="http://www.w3.org/2000/svg"
 width="120.000000pt" height="85.000000pt" viewBox="0 0 120.000000 85.000000"
 preserveAspectRatio="xMidYMid meet">

<g transform="translate(0.000000,85.000000) scale(0.100000,-0.100000)"
fill="#000000" stroke="none">
<path d="M744 724 c-7 -3 -10 -14 -7 -24 9 -34 -40 -36 -161 -6 -151 36 -252
36 -325 0 -72 -36 -111 -91 -111 -156 0 -43 4 -54 31 -79 35 -33 82 -38 128
-14 37 19 58 67 43 100 -13 27 -56 36 -46 10 4 -10 0 -15 -15 -15 -41 0 -16
81 34 114 34 22 121 31 158 17 l28 -11 -30 -26 c-17 -14 -50 -58 -74 -97 -23
-39 -65 -96 -92 -126 -46 -49 -55 -54 -96 -55 -40 -1 -44 1 -42 22 2 16 -4 25
-23 32 -36 14 -70 3 -99 -32 -68 -80 18 -189 139 -174 101 12 170 85 272 293
35 72 71 134 80 137 8 3 42 -3 74 -14 117 -39 210 -17 210 50 0 40 -41 68 -76
54z"/>
<path d="M951 535 c-38 -80 -75 -145 -81 -145 -8 0 -9 7 -5 18 14 35 17 90 5
112 -10 19 -18 22 -57 17 -36 -4 -54 -13 -88 -47 -24 -24 -49 -56 -56 -72 -19
-46 -28 -32 -10 17 14 41 14 48 1 73 -31 54 -112 37 -167 -35 -39 -51 -53 -86
-53 -133 0 -82 69 -103 135 -41 44 42 71 48 79 16 3 -13 17 -32 31 -41 30 -19
74 -8 115 30 36 33 60 40 60 17 0 -38 12 -51 45 -51 18 0 43 9 56 19 23 19 24
19 47 -6 19 -21 29 -24 59 -20 83 14 116 66 106 171 -4 47 -2 70 7 82 12 13
11 17 -1 25 -19 12 -61 2 -77 -19 -7 -9 -35 -52 -62 -94 -27 -43 -56 -78 -64
-78 -19 0 -19 1 66 179 37 79 68 146 68 148 0 1 -20 3 -45 3 l-44 0 -70 -145z
m-325 -90 c-4 -14 -17 -31 -31 -37 -14 -6 -25 -21 -27 -36 -4 -32 -28 -42 -28
-12 0 25 32 91 56 115 22 21 39 5 30 -30z m217 33 c7 -22 -13 -63 -35 -73 -12
-6 -25 -21 -28 -34 -7 -29 -30 -40 -30 -14 0 33 61 133 81 133 4 0 9 -6 12
-12z m234 -115 c-8 -8 -22 -13 -31 -11 -14 2 -12 9 11 43 l28 40 3 -29 c2 -16
-3 -35 -11 -43z"/>
</g>
</svg>
